<mxfile host="app.diagrams.net" modified="2023-01-10T12:34:28.697Z" agent="5.0 (Macintosh; Intel Mac OS X 10_15_7) AppleWebKit/605.1.15 (KHTML, like Gecko) Version/16.1 Safari/605.1.15" version="20.7.4" etag="uoJ2ynjXeUekvBR8RUXy" type="github">
  <diagram id="A-3z6pfksdwcIngbcSIF" name="Page-1">
    <mxGraphModel dx="1194" dy="797" grid="1" gridSize="10" guides="1" tooltips="1" connect="1" arrows="1" fold="1" page="1" pageScale="1" pageWidth="827" pageHeight="1169" math="0" shadow="0">
      <root>
        <mxCell id="0" />
        <mxCell id="1" parent="0" />
        <mxCell id="h4jTyCjpcjY-aRovbTd--44" style="edgeStyle=orthogonalEdgeStyle;rounded=0;orthogonalLoop=1;jettySize=auto;html=1;exitX=0.5;exitY=0;exitDx=0;exitDy=0;entryX=0.5;entryY=1;entryDx=0;entryDy=0;fontSize=16;" edge="1" parent="1" source="h4jTyCjpcjY-aRovbTd--1" target="h4jTyCjpcjY-aRovbTd--3">
          <mxGeometry relative="1" as="geometry" />
        </mxCell>
        <mxCell id="h4jTyCjpcjY-aRovbTd--1" value="data" style="swimlane;whiteSpace=wrap;html=1;" vertex="1" parent="1">
          <mxGeometry x="160" y="280" width="160" height="120" as="geometry" />
        </mxCell>
        <mxCell id="h4jTyCjpcjY-aRovbTd--40" value="Text" style="text;html=1;strokeColor=none;fillColor=none;align=center;verticalAlign=middle;whiteSpace=wrap;rounded=0;fontSize=16;" vertex="1" parent="h4jTyCjpcjY-aRovbTd--1">
          <mxGeometry x="5" y="30" width="60" height="30" as="geometry" />
        </mxCell>
        <mxCell id="h4jTyCjpcjY-aRovbTd--28" style="edgeStyle=orthogonalEdgeStyle;rounded=0;orthogonalLoop=1;jettySize=auto;html=1;exitX=0.5;exitY=1;exitDx=0;exitDy=0;entryX=0.5;entryY=0;entryDx=0;entryDy=0;fontSize=16;" edge="1" parent="1" source="h4jTyCjpcjY-aRovbTd--3" target="h4jTyCjpcjY-aRovbTd--1">
          <mxGeometry relative="1" as="geometry" />
        </mxCell>
        <mxCell id="h4jTyCjpcjY-aRovbTd--34" style="edgeStyle=orthogonalEdgeStyle;rounded=0;orthogonalLoop=1;jettySize=auto;html=1;exitX=0;exitY=0.5;exitDx=0;exitDy=0;entryX=1;entryY=0.5;entryDx=0;entryDy=0;fontSize=16;" edge="1" parent="1" source="h4jTyCjpcjY-aRovbTd--3" target="h4jTyCjpcjY-aRovbTd--7">
          <mxGeometry relative="1" as="geometry" />
        </mxCell>
        <mxCell id="h4jTyCjpcjY-aRovbTd--3" value="IO" style="swimlane;whiteSpace=wrap;html=1;" vertex="1" parent="1">
          <mxGeometry x="160" y="160" width="160" height="80" as="geometry">
            <mxRectangle x="160" y="240" width="50" height="30" as="alternateBounds" />
          </mxGeometry>
        </mxCell>
        <mxCell id="h4jTyCjpcjY-aRovbTd--43" style="edgeStyle=orthogonalEdgeStyle;rounded=0;orthogonalLoop=1;jettySize=auto;html=1;exitX=0.5;exitY=0;exitDx=0;exitDy=0;entryX=0.5;entryY=1;entryDx=0;entryDy=0;fontSize=16;" edge="1" parent="1" source="h4jTyCjpcjY-aRovbTd--4" target="h4jTyCjpcjY-aRovbTd--1">
          <mxGeometry relative="1" as="geometry" />
        </mxCell>
        <mxCell id="h4jTyCjpcjY-aRovbTd--4" value="Vis" style="swimlane;whiteSpace=wrap;html=1;" vertex="1" parent="1">
          <mxGeometry x="160" y="440" width="160" height="80" as="geometry" />
        </mxCell>
        <mxCell id="h4jTyCjpcjY-aRovbTd--32" style="edgeStyle=orthogonalEdgeStyle;rounded=0;orthogonalLoop=1;jettySize=auto;html=1;exitX=1;exitY=0.5;exitDx=0;exitDy=0;entryX=0;entryY=0.5;entryDx=0;entryDy=0;fontSize=16;" edge="1" parent="1" source="h4jTyCjpcjY-aRovbTd--5" target="h4jTyCjpcjY-aRovbTd--6">
          <mxGeometry relative="1" as="geometry" />
        </mxCell>
        <mxCell id="h4jTyCjpcjY-aRovbTd--36" style="edgeStyle=orthogonalEdgeStyle;rounded=0;orthogonalLoop=1;jettySize=auto;html=1;exitX=0.5;exitY=1;exitDx=0;exitDy=0;entryX=0.5;entryY=0;entryDx=0;entryDy=0;fontSize=16;" edge="1" parent="1" source="h4jTyCjpcjY-aRovbTd--5" target="h4jTyCjpcjY-aRovbTd--9">
          <mxGeometry relative="1" as="geometry" />
        </mxCell>
        <mxCell id="h4jTyCjpcjY-aRovbTd--5" value="OSQP-Eigen" style="swimlane;whiteSpace=wrap;html=1;" vertex="1" parent="1">
          <mxGeometry x="400" y="160" width="160" height="80" as="geometry" />
        </mxCell>
        <mxCell id="h4jTyCjpcjY-aRovbTd--47" style="edgeStyle=orthogonalEdgeStyle;rounded=0;orthogonalLoop=1;jettySize=auto;html=1;exitX=0.5;exitY=1;exitDx=0;exitDy=0;entryX=0.5;entryY=0;entryDx=0;entryDy=0;fontSize=16;" edge="1" parent="1" source="h4jTyCjpcjY-aRovbTd--6" target="h4jTyCjpcjY-aRovbTd--45">
          <mxGeometry relative="1" as="geometry" />
        </mxCell>
        <mxCell id="h4jTyCjpcjY-aRovbTd--6" value="model" style="swimlane;whiteSpace=wrap;html=1;" vertex="1" parent="1">
          <mxGeometry x="600" y="160" width="160" height="80" as="geometry" />
        </mxCell>
        <mxCell id="h4jTyCjpcjY-aRovbTd--7" value="nhlomann-json" style="rounded=1;whiteSpace=wrap;html=1;" vertex="1" parent="1">
          <mxGeometry x="40" y="180" width="90" height="40" as="geometry" />
        </mxCell>
        <mxCell id="h4jTyCjpcjY-aRovbTd--37" style="edgeStyle=orthogonalEdgeStyle;rounded=0;orthogonalLoop=1;jettySize=auto;html=1;exitX=0.5;exitY=1;exitDx=0;exitDy=0;entryX=0.5;entryY=0;entryDx=0;entryDy=0;fontSize=16;" edge="1" parent="1" source="h4jTyCjpcjY-aRovbTd--9" target="h4jTyCjpcjY-aRovbTd--14">
          <mxGeometry relative="1" as="geometry" />
        </mxCell>
        <mxCell id="h4jTyCjpcjY-aRovbTd--38" style="edgeStyle=orthogonalEdgeStyle;rounded=0;orthogonalLoop=1;jettySize=auto;html=1;exitX=0.5;exitY=1;exitDx=0;exitDy=0;entryX=0.5;entryY=0;entryDx=0;entryDy=0;fontSize=16;" edge="1" parent="1" source="h4jTyCjpcjY-aRovbTd--9" target="h4jTyCjpcjY-aRovbTd--11">
          <mxGeometry relative="1" as="geometry" />
        </mxCell>
        <mxCell id="h4jTyCjpcjY-aRovbTd--9" value="osqp-eigen" style="rounded=1;whiteSpace=wrap;html=1;" vertex="1" parent="1">
          <mxGeometry x="440" y="260" width="80" height="40" as="geometry" />
        </mxCell>
        <mxCell id="h4jTyCjpcjY-aRovbTd--11" value="OSQP" style="rounded=1;whiteSpace=wrap;html=1;" vertex="1" parent="1">
          <mxGeometry x="500" y="340" width="80" height="40" as="geometry" />
        </mxCell>
        <mxCell id="h4jTyCjpcjY-aRovbTd--14" value="Eigen" style="rounded=1;whiteSpace=wrap;html=1;" vertex="1" parent="1">
          <mxGeometry x="380" y="340" width="80" height="40" as="geometry" />
        </mxCell>
        <mxCell id="h4jTyCjpcjY-aRovbTd--29" style="edgeStyle=orthogonalEdgeStyle;rounded=0;orthogonalLoop=1;jettySize=auto;html=1;exitX=0.25;exitY=1;exitDx=0;exitDy=0;entryX=1;entryY=0.5;entryDx=0;entryDy=0;fontSize=16;" edge="1" parent="1" source="h4jTyCjpcjY-aRovbTd--16" target="h4jTyCjpcjY-aRovbTd--3">
          <mxGeometry relative="1" as="geometry" />
        </mxCell>
        <mxCell id="h4jTyCjpcjY-aRovbTd--31" style="edgeStyle=orthogonalEdgeStyle;rounded=0;orthogonalLoop=1;jettySize=auto;html=1;exitX=0.75;exitY=1;exitDx=0;exitDy=0;entryX=0.25;entryY=0;entryDx=0;entryDy=0;fontSize=16;" edge="1" parent="1" source="h4jTyCjpcjY-aRovbTd--16" target="h4jTyCjpcjY-aRovbTd--5">
          <mxGeometry relative="1" as="geometry" />
        </mxCell>
        <mxCell id="h4jTyCjpcjY-aRovbTd--39" style="edgeStyle=orthogonalEdgeStyle;rounded=0;orthogonalLoop=1;jettySize=auto;html=1;exitX=1;exitY=0.5;exitDx=0;exitDy=0;entryX=0;entryY=0.5;entryDx=0;entryDy=0;fontSize=16;" edge="1" parent="1" source="h4jTyCjpcjY-aRovbTd--16" target="h4jTyCjpcjY-aRovbTd--20">
          <mxGeometry relative="1" as="geometry" />
        </mxCell>
        <mxCell id="h4jTyCjpcjY-aRovbTd--16" value="main" style="swimlane;whiteSpace=wrap;html=1;" vertex="1" parent="1">
          <mxGeometry x="320" y="40" width="160" height="80" as="geometry" />
        </mxCell>
        <mxCell id="h4jTyCjpcjY-aRovbTd--17" value="" style="ellipse;whiteSpace=wrap;html=1;aspect=fixed;fillColor=#000000;" vertex="1" parent="1">
          <mxGeometry x="180" y="65" width="30" height="30" as="geometry" />
        </mxCell>
        <mxCell id="h4jTyCjpcjY-aRovbTd--18" value="" style="endArrow=classic;html=1;rounded=0;exitX=1;exitY=0.5;exitDx=0;exitDy=0;entryX=0;entryY=0.5;entryDx=0;entryDy=0;" edge="1" parent="1" source="h4jTyCjpcjY-aRovbTd--17" target="h4jTyCjpcjY-aRovbTd--16">
          <mxGeometry width="50" height="50" relative="1" as="geometry">
            <mxPoint x="390" y="340" as="sourcePoint" />
            <mxPoint x="440" y="290" as="targetPoint" />
          </mxGeometry>
        </mxCell>
        <mxCell id="h4jTyCjpcjY-aRovbTd--19" value="&lt;i&gt;&lt;font style=&quot;font-size: 16px;&quot;&gt;setup.sh&lt;/font&gt;&lt;/i&gt;" style="text;html=1;strokeColor=none;fillColor=none;align=center;verticalAlign=middle;whiteSpace=wrap;rounded=0;" vertex="1" parent="1">
          <mxGeometry x="220" y="50" width="70" height="30" as="geometry" />
        </mxCell>
        <mxCell id="h4jTyCjpcjY-aRovbTd--20" value="CLI11" style="rounded=1;whiteSpace=wrap;html=1;" vertex="1" parent="1">
          <mxGeometry x="510" y="60" width="90" height="40" as="geometry" />
        </mxCell>
        <mxCell id="h4jTyCjpcjY-aRovbTd--45" value="odeint" style="rounded=1;whiteSpace=wrap;html=1;" vertex="1" parent="1">
          <mxGeometry x="635" y="260" width="90" height="40" as="geometry" />
        </mxCell>
      </root>
    </mxGraphModel>
  </diagram>
</mxfile>
